<svg xmlns="http://www.w3.org/2000/svg" width="143" height="143" viewBox="0 0 143 143"><g transform="translate(-161)"><rect width="143" height="143" rx="71.5" transform="translate(161)" fill="#7414ff"/><path d="M60.02-279.2c-6.477,8.326-21.639,5.8-25.524-3.7-.957-2.341-1.049-5.58-1.173-8.079-.153-3.067-.2-6.139-.2-9.21q0-2.275.033-4.549a7.734,7.734,0,0,1,.7-3.92,4.244,4.244,0,0,1,3.931-1.667,4.5,4.5,0,0,1,2.554,1.013c1.03.892,1.175,2.5,1.185,3.774.022,3,.028,6.006.082,9.008a22.662,22.662,0,0,0,.249,3.258c1.439,8.787,13.226,13.671,18.827,5.459.174-.255.283-.607.684-.62.063.08.157.148.181.235a10.894,10.894,0,0,1-1.533,9m-38.555,5.134a14.8,14.8,0,0,1-5.69-3.128,10.392,10.392,0,0,1-2.851-6.633,54.574,54.574,0,0,1-.162-8.218c.112-2.674.126-5.356.19-8.033.041-1.714-.006-3.428.052-5.142a5.884,5.884,0,0,1,1.265-4.1c1.536-1.7,5.77-1.374,6.976.6.752,1.23.647,2.8.654,4.188q.021,4.848-.049,9.7c-.068,5.095-.79,10.869,1.343,15.665a10.359,10.359,0,0,0,5.185,5.19,13.54,13.54,0,0,0,1.4.565,13.541,13.541,0,0,0,2.617.534c.415.046.832.079,1.248.1s.816.069,1.225.085a.656.656,0,0,1,.221.038c.045.018.155.078.157.137s-.093.066-.134.07a33.85,33.85,0,0,1-8.481-.418,39.724,39.724,0,0,1-5.169-1.2m51.884-46.582c-.38-.028-.764-.01-1.146-.01H64.5c-.874,0-1.13-.03-2,.012-1.343.066-1.743.558-1.593,1.866.025.217.071.431.092.648.157,1.683.408,3.365.445,5.051.1,4.475.108,8.953.138,13.43a20.079,20.079,0,0,1-.112,2.125,5.813,5.813,0,0,1-1.035,2.9c-.977,1.342-4.109,1.471-5.233.251a4.475,4.475,0,0,1-.812-1.4,7.364,7.364,0,0,1-.4-2.738q.019-5.079,0-10.157a12.451,12.451,0,0,0-2.162-7.1c-1.732-2.541-3.418-4.277-6.521-4.774a12,12,0,0,0-10.829,3.334c-.468.456-.875.974-1.323,1.451-.2.216-.308.582-.762.525-.227-.34-.468-.7-.71-1.062a9.53,9.53,0,0,0-5.909-4.09,13.8,13.8,0,0,0-4.228-.276,9.455,9.455,0,0,0-4.857,1.771,12.444,12.444,0,0,0-2.814,2.947c-.142.2-.247.52-.707.343-.048-.266-.1-.575-.16-.884-.072-.375-.13-.754-.23-1.122a1.978,1.978,0,0,0-2.216-1.733c-3.058-.023-5.7-.026-8.761,0-1.709.014-1.946.381-1.739,2.1a58.118,58.118,0,0,1,.55,5.86c.092,5.022.056,10.047.081,15.07.032,6.466-.791,12.441.985,18.774,3.078,10.977,15.478,14.288,25.5,14.842a117.508,117.508,0,0,0,22.646-.451c6.617-.918,14.078-2.634,18.771-7.781,3.936-4.317,5.434-9.988,5.861-15.672q.083-1.106.11-2.215c.076-3-.059-6.027-.044-8.932.023-4.423-.028-8.847.024-13.27.024-2.015.221-4.029.347-6.042.037-.6.139-1.2.137-1.795a1.6,1.6,0,0,0-1.683-1.8" transform="translate(194.984 369.05)" fill="#fff7f0"/></g></svg>